<svg width="17" height="18" viewBox="0 0 17 18" fill="none" xmlns="http://www.w3.org/2000/svg">
<path d="M8.50012 0.785645C6.08775 0.785645 4.12512 2.78832 4.12512 5.24993C4.12512 7.71154 6.08775 9.71422 8.50012 9.71422C10.9125 9.71422 12.8751 7.71154 12.8751 5.24993C12.8751 2.78832 10.9125 0.785645 8.50012 0.785645ZM8.50012 7.9285C7.05287 7.9285 5.87512 6.72672 5.87512 5.24993C5.87512 3.77314 7.05287 2.57136 8.50012 2.57136C9.94737 2.57136 11.1251 3.77314 11.1251 5.24993C11.1251 6.72672 9.94737 7.9285 8.50012 7.9285ZM16.3751 17.7499V16.8571C16.3751 13.4115 13.6267 10.6071 10.2501 10.6071H6.75012C3.37262 10.6071 0.625122 13.4115 0.625122 16.8571V17.7499H2.37512V16.8571C2.37512 14.3955 4.33775 12.3928 6.75012 12.3928H10.2501C12.6625 12.3928 14.6251 14.3955 14.6251 16.8571V17.7499H16.3751Z" fill="#4B94C8"/>
</svg>
