<svg width="20" height="23" viewBox="0 0 20 23" fill="none" xmlns="http://www.w3.org/2000/svg">
<path d="M17.1 12.4937L15.6 11.0069V7.34335C15.62 5.98292 15.1399 4.66132 14.2485 3.62256C13.357 2.5838 12.1144 1.89805 10.75 1.69193C9.9582 1.58914 9.15324 1.65399 8.38886 1.88215C7.62448 2.11031 6.91825 2.49653 6.31729 3.01505C5.71634 3.53357 5.23448 4.17246 4.90386 4.88909C4.57325 5.60571 4.40148 6.3836 4.40002 7.17085V11.0069L2.90002 12.4937C2.71161 12.6825 2.58384 12.9219 2.53269 13.1819C2.48153 13.4419 2.50927 13.711 2.61242 13.9556C2.71557 14.2001 2.88956 14.4093 3.11265 14.5569C3.33573 14.7045 3.59801 14.784 3.86669 14.7855H6.66669V15.0648C6.70561 15.8987 7.07831 16.6834 7.70312 17.2469C8.32794 17.8105 9.1539 18.1069 10 18.0712C10.8461 18.1069 11.6721 17.8105 12.2969 17.2469C12.9217 16.6834 13.2944 15.8987 13.3334 15.0648V14.7855H16.1334C16.402 14.784 16.6643 14.7045 16.8874 14.5569C17.1105 14.4093 17.2845 14.2001 17.3876 13.9556C17.4908 13.711 17.5185 13.4419 17.4674 13.1819C17.4162 12.9219 17.2884 12.6825 17.1 12.4937ZM11.6667 15.0648C11.6205 15.4599 11.4214 15.8222 11.1109 16.0762C10.8004 16.3302 10.4025 16.4564 10 16.4284C9.59753 16.4564 9.1996 16.3302 8.88913 16.0762C8.57865 15.8222 8.37957 15.4599 8.33335 15.0648V14.7855H11.6667V15.0648ZM4.59169 13.1426L5.57502 12.1734C5.73099 12.0205 5.85474 11.8388 5.93912 11.6386C6.02351 11.4384 6.06686 11.2237 6.06669 11.0069V7.17085C6.06714 6.61672 6.18784 6.06909 6.42068 5.56472C6.65352 5.06035 6.99312 4.61091 7.41669 4.24657C7.83454 3.87338 8.32967 3.59415 8.8678 3.42821C9.40594 3.26226 9.97424 3.21357 10.5334 3.2855C11.4971 3.43974 12.3719 3.93197 12.9966 4.67156C13.6213 5.41115 13.954 6.34831 13.9334 7.3105V11.0069C13.9321 11.2231 13.9741 11.4375 14.0571 11.6376C14.14 11.8378 14.2622 12.0198 14.4167 12.1734L15.4084 13.1426H4.59169Z" fill="#4B94C8"/>
</svg>
