<svg width="37" height="37" viewBox="0 0 37 37" fill="none" xmlns="http://www.w3.org/2000/svg">
<g filter="url(#filter0_d_69_1753)">
<rect x="4" y="5.1665" width="8.70646" height="8.70647" rx="4.35323" fill="#236B9E"/>
<rect x="13.9255" y="5.1665" width="8.70646" height="8.70647" rx="4.35323" fill="#236B9E"/>
<rect x="23.8507" y="5.1665" width="8.70646" height="8.70647" rx="4.35323" fill="#236B9E"/>
<rect x="5.91541" y="14.3955" width="7.31342" height="7.31343" rx="3.65671" fill="#236B9E"/>
<rect x="14.6219" y="14.3955" width="7.31342" height="7.31343" rx="3.65671" fill="#236B9E"/>
<rect x="23.3284" y="14.3955" width="7.31342" height="7.31343" rx="3.65671" fill="#236B9E"/>
<rect x="7.65674" y="22.231" width="6.26865" height="6.26866" rx="3.13432" fill="#236B9E"/>
<rect x="15.1443" y="22.231" width="6.26865" height="6.26866" rx="3.13432" fill="#236B9E"/>
<rect x="22.6318" y="22.231" width="6.26865" height="6.26866" rx="3.13432" fill="#236B9E"/>
</g>
<g filter="url(#filter1_d_69_1753)">
<g clip-path="url(#clip0_69_1753)">
<g filter="url(#filter2_d_69_1753)">
<path d="M12.8125 3.5818C12.7025 3.5804 12.5958 3.5448 12.507 3.47994C12.4182 3.41508 12.3518 3.32419 12.317 3.21988C12.2823 3.11556 12.2808 3.00301 12.3129 2.89785C12.3451 2.79269 12.4091 2.70014 12.4962 2.63305C14.3932 1.29102 16.6777 0.607602 19 0.687429C20.8287 0.687429 23.455 0.996804 25.5312 2.48868C25.6448 2.57014 25.7215 2.69319 25.7447 2.83099C25.7679 2.9688 25.7356 3.11018 25.655 3.2243C25.5712 3.33722 25.4465 3.41274 25.3076 3.4346C25.1688 3.45646 25.0269 3.42291 24.9125 3.34118C23.1494 2.22069 21.0876 1.66209 19 1.7393C16.9158 1.6685 14.865 2.2765 13.1562 3.4718C13.0589 3.54925 12.9367 3.58838 12.8125 3.5818Z" fill="#7FB1D4"/>
<path d="M18.9998 0.437988V0.437012C20.8473 0.437012 23.5378 0.748166 25.6776 2.28564H25.6766C25.8437 2.40557 25.9569 2.58667 25.991 2.78955C26.0209 2.96721 25.9885 3.14894 25.9002 3.3042L25.8592 3.36865L25.8563 3.37354C25.7335 3.53908 25.5501 3.64909 25.3465 3.68115C25.1469 3.71256 24.9441 3.66499 24.7781 3.55029V3.55225C23.0579 2.45905 21.0464 1.91351 19.0096 1.98877L19.0008 1.98975L18.991 1.98877C16.9613 1.91992 14.9639 2.51221 13.2996 3.67627L13.2986 3.67529C13.1582 3.78249 12.986 3.83757 12.8094 3.83057V3.83154L12.8065 3.83057C12.8042 3.83047 12.8019 3.83166 12.7996 3.83154V3.83057C12.6412 3.82657 12.4873 3.77571 12.3592 3.68213C12.2611 3.61044 12.182 3.5167 12.1268 3.40967L12.0799 3.29932C12.0287 3.14574 12.0268 2.97953 12.074 2.82471L12.118 2.7124C12.1704 2.60422 12.2475 2.5091 12.3436 2.43506L12.3514 2.4292L12.7205 2.1792C14.5835 0.972462 16.7745 0.363283 18.9998 0.437988Z" stroke="#236B9E" stroke-width="0.5"/>
</g>
<g filter="url(#filter3_d_69_1753)">
<path d="M27.4081 8.42884C27.3231 8.42806 27.2395 8.40709 27.1642 8.36764C27.0889 8.32819 27.0241 8.27141 26.975 8.20197C25.7856 6.52447 23.6613 4.29009 19 4.29009C17.4502 4.25106 15.9139 4.58698 14.5218 5.26927C13.1297 5.95155 11.923 6.96001 11.0044 8.20884C10.9219 8.3213 10.7984 8.39666 10.6606 8.41854C10.5229 8.44043 10.3821 8.40707 10.2688 8.32571C10.2093 8.28435 10.1592 8.23109 10.1214 8.16931C10.0836 8.10753 10.0591 8.03858 10.0494 7.96682C10.0397 7.89507 10.0451 7.82209 10.0651 7.7525C10.0851 7.68291 10.1193 7.61824 10.1656 7.56259C11.1841 6.18679 12.5182 5.07584 14.0556 4.32328C15.593 3.57072 17.2888 3.19859 19 3.23822C22.8569 3.23822 25.7444 4.66822 27.8275 7.59697C27.9075 7.71193 27.9386 7.85388 27.9141 7.99175C27.8896 8.12962 27.8115 8.25218 27.6969 8.33259C27.6118 8.39154 27.5116 8.42493 27.4081 8.42884Z" fill="#7FB1D4"/>
<path d="M19.0057 2.98828L19.0047 2.98926C22.8109 2.99038 25.7122 4.36347 27.8289 7.17578L28.0311 7.45215L28.033 7.4541L28.0731 7.51953C28.1478 7.65338 28.1815 7.80615 28.1697 7.95898L28.16 8.03516C28.1239 8.23807 28.0093 8.41872 27.8406 8.53711L27.8397 8.53809C27.7154 8.62413 27.5688 8.67297 27.4178 8.67871H27.4061C27.2815 8.67757 27.159 8.64662 27.0486 8.58887C26.9382 8.53103 26.8432 8.44752 26.7713 8.3457V8.34668C26.1872 7.52292 25.3823 6.57397 24.16 5.83008C22.9395 5.08735 21.288 4.54004 18.9998 4.54004H18.994C17.5787 4.5044 16.1747 4.78962 14.8875 5.37305L14.6317 5.49414C13.2758 6.1587 12.1006 7.14111 11.2059 8.35742L11.2049 8.35645C11.1138 8.48044 10.9897 8.57444 10.8475 8.62695L10.7 8.66504C10.4983 8.69709 10.2921 8.6487 10.1258 8.53027V8.53125C10.0599 8.48542 10.0015 8.42971 9.95294 8.36621L9.90802 8.2998C9.8522 8.20846 9.81591 8.10608 9.80157 8C9.7873 7.89405 9.79549 7.78635 9.82501 7.68359L9.8504 7.60742C9.88033 7.53331 9.92211 7.46403 9.97345 7.40234C11.0146 5.99971 12.377 4.86668 13.9461 4.09863L14.243 3.95898C15.7364 3.28281 17.364 2.95029 19.0057 2.98828Z" stroke="#236B9E" stroke-width="0.5"/>
</g>
<g filter="url(#filter4_d_69_1753)">
<path d="M16.4425 21.3125C16.3359 21.3119 16.2318 21.2796 16.1436 21.2195C16.0555 21.1595 15.9872 21.0746 15.9475 20.9756C15.92 20.9108 15.9061 20.8411 15.9066 20.7708C15.907 20.7004 15.9219 20.6309 15.9502 20.5665C15.9785 20.5021 16.0198 20.4441 16.0713 20.3963C16.1229 20.3484 16.1837 20.3116 16.25 20.2881C19.2544 19.1331 21.0625 16.7681 21.0625 13.9562C21.0831 13.6801 21.0438 13.4028 20.9474 13.1433C20.851 12.8837 20.6998 12.648 20.504 12.4522C20.3082 12.2565 20.0725 12.1052 19.813 12.0088C19.5534 11.9124 19.2761 11.8732 19 11.8937C17.7213 11.8937 17.1025 12.5812 16.9375 14.1968C16.8608 14.9525 16.4942 15.649 15.9147 16.14C15.3352 16.631 14.588 16.8783 13.83 16.83C13.4224 16.8359 13.018 16.7568 12.6426 16.5979C12.2672 16.4389 11.9291 16.2035 11.6496 15.9066C11.3702 15.6098 11.1557 15.258 11.0198 14.8736C10.8838 14.4893 10.8294 14.0809 10.86 13.6743C10.898 11.5487 11.7752 9.52445 13.3002 8.04324C14.8252 6.56203 16.8742 5.74415 19 5.76809C21.1797 5.76805 23.2709 6.63064 24.8167 8.16742C26.3625 9.7042 27.2373 11.7903 27.25 13.97C27.2015 15.5047 26.8778 17.0183 26.2944 18.4387C26.2384 18.5654 26.1355 18.6655 26.0074 18.718C25.8792 18.7706 25.7357 18.7715 25.6069 18.7206C25.543 18.6943 25.485 18.6555 25.4361 18.6066C25.3873 18.5577 25.3487 18.4996 25.3225 18.4357C25.2962 18.3717 25.283 18.3032 25.2834 18.2341C25.2838 18.165 25.298 18.0967 25.325 18.0331C25.853 16.7407 26.1485 15.3652 26.1981 13.97C26.1891 12.0681 25.4262 10.2475 24.0769 8.90719C22.7276 7.5669 20.9019 6.8163 19 6.81996C18.0798 6.80174 17.1649 6.96522 16.3079 7.30106C15.4509 7.63689 14.6686 8.13847 14.0057 8.77708C13.3428 9.41569 12.8124 10.1788 12.4449 11.0227C12.0773 11.8666 11.8799 12.7747 11.8638 13.695C11.8356 13.9624 11.8644 14.2329 11.9483 14.4884C12.0321 14.7439 12.1692 14.9788 12.3504 15.1776C12.5316 15.3763 12.7529 15.5344 12.9996 15.6415C13.2464 15.7486 13.513 15.8021 13.7819 15.7987C14.0295 15.8233 14.2795 15.7987 14.5175 15.7261C14.7555 15.6536 14.9768 15.5346 15.1685 15.3761C15.3603 15.2176 15.5187 15.0226 15.6347 14.8025C15.7508 14.5824 15.822 14.3415 15.8444 14.0937C16.0919 11.9556 17.1438 10.8693 18.9794 10.8693C19.3954 10.8483 19.8111 10.9152 20.1995 11.0657C20.5879 11.2162 20.9402 11.4469 21.2334 11.7427C21.5267 12.0385 21.7542 12.3928 21.9013 12.7825C22.0483 13.1722 22.1116 13.5886 22.0869 14.0043C22.0869 17.2631 20.0244 19.9993 16.5869 21.3125C16.5389 21.318 16.4905 21.318 16.4425 21.3125Z" fill="#7FB1D4"/>
<path d="M19.0021 5.51953C21.2471 5.52005 23.4012 6.40738 24.9933 7.99023C26.5858 9.57356 27.4871 11.7231 27.5002 13.9688V13.9775C27.4507 15.5422 27.1204 17.0861 26.5256 18.5342L26.5226 18.54C26.461 18.6792 26.361 18.7965 26.2355 18.8789L26.1017 18.9492C25.9139 19.0261 25.7036 19.0277 25.5148 18.9531L25.5119 18.9521C25.4174 18.9132 25.3312 18.8555 25.259 18.7832C25.1869 18.7109 25.1297 18.6247 25.091 18.5303C25.0523 18.4358 25.0327 18.3345 25.0334 18.2324C25.0341 18.1304 25.055 18.0295 25.0949 17.9355C25.6109 16.6712 25.8999 15.3256 25.9484 13.9609C25.9377 12.2435 25.2899 10.5953 24.1379 9.33203L23.9006 9.08496C22.5982 7.7913 20.8359 7.06678 19.0002 7.07031H18.9953C18.2187 7.05493 17.4458 7.17297 16.7111 7.41992L16.3996 7.53418C15.6765 7.81755 15.0079 8.22285 14.424 8.73242L14.1789 8.95703C13.6196 9.49585 13.1587 10.1269 12.8146 10.8213L12.674 11.1221C12.3196 11.9358 12.129 12.8118 12.1135 13.6992V13.71L12.1125 13.7207C12.088 13.953 12.1129 14.1882 12.1857 14.4102C12.2586 14.6321 12.378 14.8362 12.5353 15.0088C12.6927 15.1814 12.8846 15.3191 13.0988 15.4121L13.2629 15.4736C13.4293 15.5258 13.6034 15.551 13.7785 15.5488H13.7932L13.8068 15.5498C14.0214 15.5711 14.2382 15.5502 14.4445 15.4873C14.6508 15.4244 14.8427 15.321 15.009 15.1836L15.1281 15.0742C15.2416 14.9597 15.3378 14.8287 15.4133 14.6855L15.4816 14.54C15.5425 14.3906 15.5813 14.2326 15.5959 14.0713V14.0654L15.6535 13.6631C15.8115 12.7518 16.1337 12.024 16.6369 11.5059C17.1447 10.9831 17.8149 10.6962 18.6242 10.6328L18.9797 10.6191C19.4265 10.5984 19.8731 10.6714 20.2902 10.833L20.4455 10.8975C20.8053 11.0591 21.133 11.2856 21.4113 11.5664L21.5266 11.6895C21.7891 11.9838 21.9954 12.3244 22.1349 12.6943L22.1906 12.8545C22.3086 13.2252 22.3584 13.6146 22.3371 14.0039L22.3303 14.3193C22.2013 17.558 20.0839 20.2441 16.676 21.5459L16.6467 21.5576L16.6154 21.5605C16.5576 21.5672 16.4995 21.5664 16.4416 21.5615V21.5625C16.4368 21.5625 16.4317 21.5607 16.4269 21.5605C16.4228 21.5601 16.4184 21.561 16.4142 21.5605V21.5596C16.3062 21.5553 16.2005 21.5311 16.1037 21.4844L16.0031 21.4258C15.8739 21.3378 15.7731 21.2135 15.715 21.0684V21.0674C15.6759 20.973 15.6558 20.8717 15.6564 20.7695C15.6571 20.6651 15.6798 20.5614 15.7219 20.4658L15.756 20.3955C15.7946 20.3277 15.8442 20.2662 15.9016 20.2129L15.9611 20.1631C16.0217 20.1174 16.0888 20.0807 16.1603 20.0547L16.4308 19.9463C19.1933 18.7869 20.8127 16.5615 20.8127 13.9561V13.9473L20.8137 13.9375C20.827 13.7574 20.8109 13.5767 20.7668 13.4023L20.7131 13.2305C20.6501 13.061 20.5604 12.9029 20.4474 12.7627L20.3273 12.6289C20.157 12.4586 19.9516 12.327 19.7258 12.2432C19.5 12.1594 19.2589 12.1247 19.0187 12.1426L19.009 12.1436H19.0002C18.4073 12.1436 18.011 12.3014 17.7375 12.6064C17.4544 12.9222 17.2671 13.4351 17.1867 14.2227C17.1137 14.9401 16.7995 15.6083 16.301 16.1211L16.0764 16.3311C15.4521 16.8599 14.6485 17.1265 13.8322 17.0791L13.8332 17.0801C13.4463 17.0856 13.0622 17.0205 12.6994 16.8887L12.5451 16.8281C12.1886 16.6771 11.8631 16.4625 11.5842 16.1953L11.468 16.0781C11.2025 15.7961 10.9905 15.4684 10.843 15.1113L10.7844 14.957C10.6368 14.54 10.5773 14.0964 10.6105 13.6553H10.6115C10.6544 11.4691 11.5574 9.38806 13.1262 7.86426L13.4269 7.58594C14.962 6.23545 16.9462 5.49705 19.0002 5.51953V5.51855L19.0012 5.51953L19.0031 5.51855L19.0021 5.51953Z" stroke="#236B9E" stroke-width="0.5"/>
</g>
<g filter="url(#filter5_d_69_1753)">
<path d="M21.5919 20.8176C21.4602 20.8155 21.3335 20.7667 21.2344 20.6801C21.1853 20.6315 21.1464 20.5737 21.1198 20.5099C21.0932 20.4462 21.0796 20.3779 21.0796 20.3088C21.0796 20.2398 21.0932 20.1714 21.1198 20.1077C21.1464 20.044 21.1853 19.9862 21.2344 19.9376C22.7811 18.3343 23.6524 16.1978 23.6681 13.9701C23.6681 12.8976 23.3381 9.3982 19.0619 9.3982C18.4388 9.37628 17.8176 9.47868 17.2344 9.69941C16.6513 9.92014 16.118 10.2548 15.6656 10.6838C15.2609 11.0843 14.9409 11.5622 14.7247 12.089C14.5086 12.6158 14.4007 13.1807 14.4075 13.7501C14.4057 13.8893 14.3491 14.0222 14.25 14.12C14.151 14.2178 14.0174 14.2726 13.8781 14.2726C13.8089 14.2735 13.7403 14.2606 13.6761 14.2348C13.6119 14.2089 13.5535 14.1706 13.5042 14.122C13.455 14.0734 13.4159 14.0155 13.3892 13.9516C13.3625 13.8878 13.3488 13.8193 13.3488 13.7501C13.338 13.0457 13.4675 12.3463 13.7295 11.6925C13.9915 11.0386 14.3809 10.4433 14.875 9.94132C15.4227 9.41561 16.0694 9.0039 16.7775 8.7301C17.4856 8.4563 18.2411 8.32585 19 8.34632C23.18 8.34632 24.665 11.3713 24.665 13.9701C24.656 16.4498 23.6964 18.8317 21.9838 20.6251C21.9365 20.6839 21.8769 20.7316 21.8092 20.7649C21.7415 20.7981 21.6673 20.8161 21.5919 20.8176Z" fill="#7FB1D4"/>
<path d="M19.0063 8.09619L19.0054 8.09717C21.159 8.09847 22.6471 8.88088 23.5923 10.0239C24.5316 11.1602 24.9146 12.6277 24.9146 13.9702V13.9712C24.9053 16.5148 23.9212 18.9578 22.1646 20.7974C22.1147 20.856 22.0574 20.9076 21.9927 20.9487L21.9194 20.9888C21.819 21.0381 21.709 21.0656 21.5972 21.0679H21.5874C21.3968 21.0647 21.2134 20.994 21.0698 20.8687L21.064 20.8628L21.0581 20.8579C21.0038 20.8041 20.9585 20.7423 20.9224 20.6753L20.8892 20.606C20.8499 20.5119 20.8296 20.411 20.8296 20.3091C20.8296 20.207 20.8499 20.1054 20.8892 20.0112L20.9224 19.9429C20.9585 19.8758 21.0038 19.8141 21.0581 19.7603C22.5576 18.204 23.4028 16.1314 23.4185 13.9702L23.4136 13.7505C23.3901 13.1817 23.2642 12.2447 22.7554 11.4126C22.1861 10.4817 21.1175 9.64798 19.062 9.64795H19.0532C18.5371 9.6298 18.0222 9.70164 17.5317 9.85986L17.3228 9.93311C16.7723 10.1415 16.2678 10.4563 15.8403 10.8608L15.8413 10.8618C15.508 11.1916 15.2357 11.5771 15.0366 12.0005L14.9556 12.1841C14.7522 12.6797 14.6513 13.2119 14.6577 13.7476V13.7534C14.655 13.9583 14.5711 14.1544 14.4253 14.2983C14.28 14.4415 14.0843 14.5214 13.8804 14.522L13.8813 14.5229C13.7791 14.5243 13.6774 14.5045 13.5825 14.4663C13.5114 14.4376 13.4447 14.3991 13.3853 14.3511L13.3286 14.3003C13.274 14.2464 13.2282 14.184 13.1919 14.1167L13.1587 14.0483C13.1291 13.9776 13.1106 13.9027 13.103 13.8267L13.0991 13.7505C13.0884 13.0142 13.2236 12.2827 13.4976 11.5991L13.6069 11.3452C13.8758 10.7604 14.2443 10.2259 14.6968 9.76611L14.7017 9.76123L14.9214 9.56104C15.4435 9.10744 16.0405 8.74658 16.687 8.49658L16.9663 8.39697C17.6231 8.17973 18.3133 8.07754 19.0063 8.09619Z" stroke="#236B9E" stroke-width="0.5"/>
</g>
<g filter="url(#filter6_d_69_1753)">
<path d="M13.9538 19.0713C13.5954 19.0705 13.2373 19.0498 12.8813 19.0095C12.8126 19.0018 12.7462 18.9807 12.6858 18.9473C12.6253 18.914 12.572 18.869 12.5289 18.8151C12.4858 18.7612 12.4538 18.6992 12.4346 18.6329C12.4154 18.5666 12.4095 18.4971 12.4172 18.4285C12.4249 18.3599 12.446 18.2935 12.4793 18.233C12.5127 18.1726 12.5576 18.1193 12.6116 18.0762C12.6655 18.0331 12.7274 18.001 12.7937 17.9819C12.8601 17.9627 12.9295 17.9568 12.9981 17.9645C14.71 18.157 16.0575 17.8545 17.0131 17.057C17.4536 16.663 17.8098 16.184 18.0603 15.6488C18.3108 15.1136 18.4504 14.5332 18.4706 13.9426C18.474 13.873 18.4915 13.8048 18.522 13.7421C18.5525 13.6794 18.5954 13.6236 18.6481 13.578C18.7008 13.5323 18.7622 13.4979 18.8286 13.4766C18.895 13.4554 18.965 13.4479 19.0344 13.4545C19.173 13.465 19.3021 13.529 19.3944 13.6329C19.4867 13.7368 19.5351 13.8725 19.5294 14.0113C19.5004 14.7467 19.3221 15.4684 19.0054 16.1326C18.6886 16.7969 18.24 17.3897 17.6869 17.8751C16.6257 18.7076 15.3012 19.132 13.9538 19.0713Z" fill="#7FB1D4"/>
<path d="M19.0526 13.2061L19.0536 13.2051C19.2567 13.2206 19.4456 13.3146 19.5809 13.4668C19.6824 13.5809 19.7476 13.7213 19.7704 13.8701L19.7792 14.0215C19.7488 14.7905 19.5626 15.5455 19.2313 16.2402C18.9 16.9351 18.4301 17.5557 17.8514 18.0635L17.8417 18.0723C16.7334 18.9417 15.3494 19.3846 13.9423 19.3213V19.3203C13.6704 19.3194 13.3986 19.3083 13.1278 19.2852L12.8534 19.2578C12.8029 19.2522 12.7531 19.2419 12.705 19.2266L12.5653 19.166C12.5206 19.1414 12.4781 19.1128 12.4393 19.0801L12.3339 18.9707C12.3022 18.931 12.2741 18.8887 12.2509 18.8438L12.1942 18.7021C12.166 18.6043 12.1575 18.5016 12.1688 18.4004L12.2001 18.252C12.2154 18.2036 12.236 18.1569 12.2606 18.1123L12.3466 17.9873C12.3793 17.9485 12.4161 17.9127 12.4559 17.8809L12.5829 17.7979C12.6279 17.7745 12.6755 17.7554 12.7245 17.7412L12.8739 17.7139C12.9244 17.7096 12.9756 17.7102 13.0262 17.7158L13.3348 17.7451C14.8508 17.864 16.0169 17.5592 16.8466 16.8701L16.9989 16.7275C17.3445 16.3854 17.6273 15.9844 17.8339 15.543L17.9178 15.3516C18.1015 14.9012 18.2039 14.4208 18.2206 13.9336V13.9307L18.2284 13.8535C18.2399 13.777 18.2637 13.7027 18.2977 13.6328L18.3348 13.5645C18.3755 13.4989 18.4257 13.4394 18.4843 13.3887L18.5458 13.3418C18.6091 13.2973 18.6789 13.2619 18.7528 13.2383L18.827 13.2188C18.901 13.2031 18.977 13.1994 19.0526 13.2061Z" stroke="#236B9E" stroke-width="0.5"/>
</g>
</g>
</g>
<defs>
<filter id="filter0_d_69_1753" x="0" y="5.1665" width="36.5572" height="31.333" filterUnits="userSpaceOnUse" color-interpolation-filters="sRGB">
<feFlood flood-opacity="0" result="BackgroundImageFix"/>
<feColorMatrix in="SourceAlpha" type="matrix" values="0 0 0 0 0 0 0 0 0 0 0 0 0 0 0 0 0 0 127 0" result="hardAlpha"/>
<feOffset dy="4"/>
<feGaussianBlur stdDeviation="2"/>
<feComposite in2="hardAlpha" operator="out"/>
<feColorMatrix type="matrix" values="0 0 0 0 0 0 0 0 0 0 0 0 0 0 0 0 0 0 0.25 0"/>
<feBlend mode="normal" in2="BackgroundImageFix" result="effect1_dropShadow_69_1753"/>
<feBlend mode="normal" in="SourceGraphic" in2="effect1_dropShadow_69_1753" result="shape"/>
</filter>
<filter id="filter1_d_69_1753" x="4" y="0" width="30" height="30" filterUnits="userSpaceOnUse" color-interpolation-filters="sRGB">
<feFlood flood-opacity="0" result="BackgroundImageFix"/>
<feColorMatrix in="SourceAlpha" type="matrix" values="0 0 0 0 0 0 0 0 0 0 0 0 0 0 0 0 0 0 127 0" result="hardAlpha"/>
<feOffset dy="4"/>
<feGaussianBlur stdDeviation="2"/>
<feComposite in2="hardAlpha" operator="out"/>
<feColorMatrix type="matrix" values="0 0 0 0 0 0 0 0 0 0 0 0 0 0 0 0 0 0 0.25 0"/>
<feBlend mode="normal" in2="BackgroundImageFix" result="effect1_dropShadow_69_1753"/>
<feBlend mode="normal" in="SourceGraphic" in2="effect1_dropShadow_69_1753" result="shape"/>
</filter>
<filter id="filter2_d_69_1753" x="7.78986" y="0.181152" width="22.4622" height="11.9014" filterUnits="userSpaceOnUse" color-interpolation-filters="sRGB">
<feFlood flood-opacity="0" result="BackgroundImageFix"/>
<feColorMatrix in="SourceAlpha" type="matrix" values="0 0 0 0 0 0 0 0 0 0 0 0 0 0 0 0 0 0 127 0" result="hardAlpha"/>
<feOffset dy="4"/>
<feGaussianBlur stdDeviation="2"/>
<feComposite in2="hardAlpha" operator="out"/>
<feColorMatrix type="matrix" values="0 0 0 0 0 0 0 0 0 0 0 0 0 0 0 0 0 0 0.25 0"/>
<feBlend mode="normal" in2="BackgroundImageFix" result="effect1_dropShadow_69_1753"/>
<feBlend mode="normal" in="SourceGraphic" in2="effect1_dropShadow_69_1753" result="shape"/>
</filter>
<filter id="filter3_d_69_1753" x="5.54474" y="2.73535" width="26.8776" height="14.1934" filterUnits="userSpaceOnUse" color-interpolation-filters="sRGB">
<feFlood flood-opacity="0" result="BackgroundImageFix"/>
<feColorMatrix in="SourceAlpha" type="matrix" values="0 0 0 0 0 0 0 0 0 0 0 0 0 0 0 0 0 0 127 0" result="hardAlpha"/>
<feOffset dy="4"/>
<feGaussianBlur stdDeviation="2"/>
<feComposite in2="hardAlpha" operator="out"/>
<feColorMatrix type="matrix" values="0 0 0 0 0 0 0 0 0 0 0 0 0 0 0 0 0 0 0.25 0"/>
<feBlend mode="normal" in2="BackgroundImageFix" result="effect1_dropShadow_69_1753"/>
<feBlend mode="normal" in="SourceGraphic" in2="effect1_dropShadow_69_1753" result="shape"/>
</filter>
<filter id="filter4_d_69_1753" x="6.35175" y="5.26758" width="25.3983" height="24.5488" filterUnits="userSpaceOnUse" color-interpolation-filters="sRGB">
<feFlood flood-opacity="0" result="BackgroundImageFix"/>
<feColorMatrix in="SourceAlpha" type="matrix" values="0 0 0 0 0 0 0 0 0 0 0 0 0 0 0 0 0 0 127 0" result="hardAlpha"/>
<feOffset dy="4"/>
<feGaussianBlur stdDeviation="2"/>
<feComposite in2="hardAlpha" operator="out"/>
<feColorMatrix type="matrix" values="0 0 0 0 0 0 0 0 0 0 0 0 0 0 0 0 0 0 0.25 0"/>
<feBlend mode="normal" in2="BackgroundImageFix" result="effect1_dropShadow_69_1753"/>
<feBlend mode="normal" in="SourceGraphic" in2="effect1_dropShadow_69_1753" result="shape"/>
</filter>
<filter id="filter5_d_69_1753" x="8.84814" y="7.84424" width="20.3169" height="21.4736" filterUnits="userSpaceOnUse" color-interpolation-filters="sRGB">
<feFlood flood-opacity="0" result="BackgroundImageFix"/>
<feColorMatrix in="SourceAlpha" type="matrix" values="0 0 0 0 0 0 0 0 0 0 0 0 0 0 0 0 0 0 127 0" result="hardAlpha"/>
<feOffset dy="4"/>
<feGaussianBlur stdDeviation="2"/>
<feComposite in2="hardAlpha" operator="out"/>
<feColorMatrix type="matrix" values="0 0 0 0 0 0 0 0 0 0 0 0 0 0 0 0 0 0 0.25 0"/>
<feBlend mode="normal" in2="BackgroundImageFix" result="effect1_dropShadow_69_1753"/>
<feBlend mode="normal" in="SourceGraphic" in2="effect1_dropShadow_69_1753" result="shape"/>
</filter>
<filter id="filter6_d_69_1753" x="7.91394" y="12.9521" width="16.1159" height="14.625" filterUnits="userSpaceOnUse" color-interpolation-filters="sRGB">
<feFlood flood-opacity="0" result="BackgroundImageFix"/>
<feColorMatrix in="SourceAlpha" type="matrix" values="0 0 0 0 0 0 0 0 0 0 0 0 0 0 0 0 0 0 127 0" result="hardAlpha"/>
<feOffset dy="4"/>
<feGaussianBlur stdDeviation="2"/>
<feComposite in2="hardAlpha" operator="out"/>
<feColorMatrix type="matrix" values="0 0 0 0 0 0 0 0 0 0 0 0 0 0 0 0 0 0 0.25 0"/>
<feBlend mode="normal" in2="BackgroundImageFix" result="effect1_dropShadow_69_1753"/>
<feBlend mode="normal" in="SourceGraphic" in2="effect1_dropShadow_69_1753" result="shape"/>
</filter>
<clipPath id="clip0_69_1753">
<rect x="8" width="22" height="22" rx="11" fill="white"/>
</clipPath>
</defs>
</svg>
