<svg width="35" height="40" viewBox="0 0 35 40" fill="none" xmlns="http://www.w3.org/2000/svg">
<g clip-path="url(#clip0_38_3875)" filter="url(#filter0_d_38_3875)">
<g filter="url(#filter1_d_38_3875)">
<path d="M8.21876 5.37295C8.05384 5.37085 7.89367 5.31745 7.76049 5.22016C7.6273 5.12287 7.52772 4.98653 7.47556 4.83006C7.42341 4.67359 7.42127 4.50476 7.46944 4.34702C7.51761 4.18928 7.61371 4.05046 7.74438 3.94983C10.5898 1.93677 14.0165 0.911647 17.5 1.03139C20.2431 1.03139 24.1825 1.49545 27.2969 3.73326C27.4672 3.85545 27.5823 4.04002 27.6171 4.24673C27.6518 4.45344 27.6035 4.66551 27.4825 4.8367C27.3569 5.00608 27.1698 5.11936 26.9615 5.15215C26.7532 5.18493 26.5403 5.13461 26.3688 5.01201C23.7241 3.33129 20.6314 2.49337 17.5 2.6092C14.3738 2.50299 11.2976 3.41499 8.73438 5.20795C8.58845 5.32412 8.40502 5.38281 8.21876 5.37295Z" fill="#236B9E"/>
</g>
<g filter="url(#filter2_d_38_3875)">
<path d="M30.1123 12.6433C29.9847 12.6421 29.8593 12.6106 29.7464 12.5515C29.6334 12.4923 29.5361 12.4071 29.4626 12.3029C27.6785 9.7867 24.4919 6.43514 17.5001 6.43514C15.1753 6.3766 12.8709 6.88047 10.7827 7.9039C8.69459 8.92732 6.88455 10.44 5.50663 12.3133C5.38288 12.4819 5.19757 12.595 4.99096 12.6278C4.78434 12.6606 4.57312 12.6106 4.40319 12.4886C4.31404 12.4265 4.23877 12.3466 4.18213 12.254C4.1255 12.1613 4.08874 12.0579 4.0742 11.9502C4.05965 11.8426 4.06764 11.7331 4.09764 11.6287C4.12765 11.5244 4.17902 11.4274 4.2485 11.3439C5.77614 9.28019 7.77728 7.61376 10.0834 6.48492C12.3896 5.35608 14.9332 4.79788 17.5001 4.85732C23.2854 4.85732 27.6166 7.00232 30.7413 11.3954C30.8612 11.5679 30.9079 11.7808 30.8712 11.9876C30.8345 12.1944 30.7173 12.3783 30.5454 12.4989C30.4177 12.5873 30.2674 12.6374 30.1123 12.6433Z" fill="#236B9E"/>
</g>
<g filter="url(#filter3_d_38_3875)">
<path d="M13.6638 31.9687C13.5038 31.9679 13.3477 31.9193 13.2154 31.8293C13.0832 31.7393 12.9807 31.6119 12.9213 31.4634C12.88 31.3662 12.8591 31.2617 12.8598 31.1561C12.8605 31.0506 12.8828 30.9463 12.9253 30.8497C12.9678 30.7531 13.0296 30.6662 13.107 30.5944C13.1843 30.5226 13.2755 30.4674 13.375 30.4321C17.8816 28.6996 20.5938 25.1521 20.5938 20.9343C20.6246 20.5202 20.5657 20.1042 20.4211 19.7149C20.2765 19.3256 20.0497 18.972 19.756 18.6783C19.4623 18.3847 19.1088 18.1578 18.7194 18.0132C18.3301 17.8687 17.9142 17.8098 17.5 17.8406C15.5819 17.8406 14.6538 18.8718 14.4063 21.2953C14.2912 22.4287 13.7413 23.4735 12.872 24.21C12.0028 24.9465 10.882 25.3175 9.74501 25.2449C9.13357 25.2538 8.52698 25.1353 7.96389 24.8968C7.4008 24.6584 6.89354 24.3052 6.47444 23.8599C6.05534 23.4146 5.73358 22.8869 5.52966 22.3104C5.32573 21.7339 5.24411 21.1213 5.29001 20.5115C5.34699 17.3231 6.66281 14.2867 8.95032 12.0649C11.2378 9.84304 14.3113 8.61622 17.5 8.65213C20.7696 8.65208 23.9063 9.94596 26.225 12.2511C28.5437 14.5563 29.8559 17.6854 29.875 20.9549C29.8022 23.2571 29.3167 25.5275 28.4416 27.6581C28.3576 27.8481 28.2033 27.9982 28.011 28.077C27.8188 28.1558 27.6035 28.1572 27.4103 28.0809C27.3145 28.0414 27.2274 27.9833 27.1542 27.9099C27.0809 27.8366 27.023 27.7494 26.9836 27.6535C26.9443 27.5576 26.9244 27.4548 26.9251 27.3512C26.9257 27.2475 26.947 27.145 26.9875 27.0496C27.7794 25.111 28.2228 23.0478 28.2972 20.9549C28.2835 18.1022 27.1393 15.3712 25.1153 13.3608C23.0914 11.3503 20.3528 10.2245 17.5 10.2299C16.1196 10.2026 14.7474 10.4478 13.4619 10.9516C12.1764 11.4553 11.0029 12.2077 10.0085 13.1656C9.01422 14.1235 8.21862 15.2682 7.6673 16.534C7.11598 17.7998 6.81977 19.162 6.79563 20.5424C6.75336 20.9437 6.79656 21.3493 6.92238 21.7326C7.04819 22.1159 7.25378 22.4682 7.5256 22.7664C7.79742 23.0645 8.1293 23.3016 8.4994 23.4622C8.8695 23.6228 9.26941 23.7032 9.67282 23.6981C10.0442 23.735 10.4192 23.698 10.7762 23.5892C11.1332 23.4804 11.4651 23.3019 11.7527 23.0641C12.0404 22.8264 12.2781 22.5339 12.4521 22.2038C12.6261 21.8736 12.733 21.5123 12.7666 21.1406C13.1378 17.9334 14.7156 16.304 17.4691 16.304C18.0931 16.2725 18.7167 16.3728 19.2993 16.5986C19.8818 16.8243 20.4103 17.1703 20.8501 17.614C21.29 18.0578 21.6313 18.5892 21.8519 19.1738C22.0725 19.7583 22.1674 20.3828 22.1303 21.0065C22.1303 25.8946 19.0366 29.999 13.8803 31.9687C13.8084 31.977 13.7357 31.977 13.6638 31.9687Z" fill="#236B9E"/>
</g>
<g filter="url(#filter4_d_38_3875)">
<path d="M21.3878 31.2261C21.1903 31.2229 21.0003 31.1499 20.8516 31.0199C20.778 30.947 20.7196 30.8603 20.6797 30.7647C20.6399 30.6691 20.6193 30.5666 20.6193 30.463C20.6193 30.3594 20.6399 30.2569 20.6797 30.1613C20.7196 30.0657 20.778 29.979 20.8516 29.9061C23.1717 27.5012 24.4787 24.2964 24.5022 20.9549C24.5022 19.3461 24.0072 14.0971 17.5928 14.0971C16.6582 14.0642 15.7263 14.2178 14.8517 14.5489C13.977 14.88 13.177 15.3819 12.4985 16.0255C11.8913 16.6262 11.4113 17.343 11.0871 18.1332C10.7628 18.9234 10.601 19.7708 10.6113 20.6249C10.6086 20.8337 10.5237 21.033 10.3751 21.1797C10.2265 21.3264 10.026 21.4086 9.8172 21.4086C9.71341 21.41 9.61039 21.3907 9.5141 21.3519C9.41782 21.3132 9.3302 21.2557 9.25633 21.1827C9.18245 21.1098 9.1238 21.023 9.08377 20.9272C9.04374 20.8314 9.02313 20.7287 9.02314 20.6249C9.00707 19.5684 9.20119 18.5192 9.59421 17.5384C9.98724 16.5577 10.5713 15.6648 11.3125 14.9117C12.1341 14.1232 13.1041 13.5056 14.1663 13.0949C15.2285 12.6842 16.3616 12.4885 17.5 12.5192C23.77 12.5192 25.9975 17.0567 25.9975 20.9549C25.984 24.6745 24.5446 28.2473 21.9756 30.9374C21.9047 31.0256 21.8154 31.0971 21.7138 31.147C21.6122 31.1969 21.501 31.2239 21.3878 31.2261Z" fill="#236B9E"/>
</g>
<g filter="url(#filter5_d_38_3875)">
<path d="M9.93058 28.607C9.39303 28.6057 8.85596 28.5748 8.32183 28.5142C8.21891 28.5027 8.11926 28.471 8.02857 28.421C7.93789 28.371 7.85795 28.3036 7.79331 28.2226C7.72867 28.1417 7.6806 28.0489 7.65185 27.9494C7.6231 27.8499 7.61422 27.7457 7.62574 27.6428C7.63725 27.5399 7.66892 27.4402 7.71894 27.3495C7.76896 27.2588 7.83636 27.1789 7.91727 27.1143C7.99819 27.0496 8.09105 27.0016 8.19054 26.9728C8.29004 26.944 8.39422 26.9352 8.49714 26.9467C11.065 27.2354 13.0862 26.7817 14.5196 25.5854C15.1804 24.9945 15.7147 24.276 16.0904 23.4732C16.4662 22.6704 16.6755 21.7998 16.7059 20.9139C16.711 20.8094 16.7372 20.7071 16.783 20.6131C16.8287 20.5191 16.8931 20.4354 16.9721 20.3669C17.0512 20.2985 17.1433 20.2468 17.2428 20.215C17.3424 20.1831 17.4474 20.1718 17.5515 20.1817C17.7594 20.1975 17.953 20.2935 18.0915 20.4493C18.23 20.6052 18.3026 20.8087 18.294 21.017C18.2506 22.12 17.9831 23.2026 17.508 24.199C17.0329 25.1953 16.36 26.0846 15.5303 26.8126C13.9385 28.0614 11.9517 28.698 9.93058 28.607Z" fill="#236B9E"/>
</g>
</g>
<defs>
<filter id="filter0_d_38_3875" x="-3" y="0" width="41" height="41" filterUnits="userSpaceOnUse" color-interpolation-filters="sRGB">
<feFlood flood-opacity="0" result="BackgroundImageFix"/>
<feColorMatrix in="SourceAlpha" type="matrix" values="0 0 0 0 0 0 0 0 0 0 0 0 0 0 0 0 0 0 127 0" result="hardAlpha"/>
<feOffset dy="4"/>
<feGaussianBlur stdDeviation="2"/>
<feComposite in2="hardAlpha" operator="out"/>
<feColorMatrix type="matrix" values="0 0 0 0 0 0 0 0 0 0 0 0 0 0 0 0 0 0 0.25 0"/>
<feBlend mode="normal" in2="BackgroundImageFix" result="effect1_dropShadow_38_3875"/>
<feBlend mode="normal" in="SourceGraphic" in2="effect1_dropShadow_38_3875" result="shape"/>
</filter>
<filter id="filter1_d_38_3875" x="3.43481" y="1.02197" width="28.1934" height="12.3521" filterUnits="userSpaceOnUse" color-interpolation-filters="sRGB">
<feFlood flood-opacity="0" result="BackgroundImageFix"/>
<feColorMatrix in="SourceAlpha" type="matrix" values="0 0 0 0 0 0 0 0 0 0 0 0 0 0 0 0 0 0 127 0" result="hardAlpha"/>
<feOffset dy="4"/>
<feGaussianBlur stdDeviation="2"/>
<feComposite in2="hardAlpha" operator="out"/>
<feColorMatrix type="matrix" values="0 0 0 0 0 0 0 0 0 0 0 0 0 0 0 0 0 0 0.25 0"/>
<feBlend mode="normal" in2="BackgroundImageFix" result="effect1_dropShadow_38_3875"/>
<feBlend mode="normal" in="SourceGraphic" in2="effect1_dropShadow_38_3875" result="shape"/>
</filter>
<filter id="filter2_d_38_3875" x="0.0671387" y="4.85303" width="34.8164" height="15.79" filterUnits="userSpaceOnUse" color-interpolation-filters="sRGB">
<feFlood flood-opacity="0" result="BackgroundImageFix"/>
<feColorMatrix in="SourceAlpha" type="matrix" values="0 0 0 0 0 0 0 0 0 0 0 0 0 0 0 0 0 0 127 0" result="hardAlpha"/>
<feOffset dy="4"/>
<feGaussianBlur stdDeviation="2"/>
<feComposite in2="hardAlpha" operator="out"/>
<feColorMatrix type="matrix" values="0 0 0 0 0 0 0 0 0 0 0 0 0 0 0 0 0 0 0.25 0"/>
<feBlend mode="normal" in2="BackgroundImageFix" result="effect1_dropShadow_38_3875"/>
<feBlend mode="normal" in="SourceGraphic" in2="effect1_dropShadow_38_3875" result="shape"/>
</filter>
<filter id="filter3_d_38_3875" x="1.27759" y="8.65137" width="32.5974" height="31.3237" filterUnits="userSpaceOnUse" color-interpolation-filters="sRGB">
<feFlood flood-opacity="0" result="BackgroundImageFix"/>
<feColorMatrix in="SourceAlpha" type="matrix" values="0 0 0 0 0 0 0 0 0 0 0 0 0 0 0 0 0 0 127 0" result="hardAlpha"/>
<feOffset dy="4"/>
<feGaussianBlur stdDeviation="2"/>
<feComposite in2="hardAlpha" operator="out"/>
<feColorMatrix type="matrix" values="0 0 0 0 0 0 0 0 0 0 0 0 0 0 0 0 0 0 0.25 0"/>
<feBlend mode="normal" in2="BackgroundImageFix" result="effect1_dropShadow_38_3875"/>
<feBlend mode="normal" in="SourceGraphic" in2="effect1_dropShadow_38_3875" result="shape"/>
</filter>
<filter id="filter4_d_38_3875" x="5.02222" y="12.5161" width="24.9753" height="26.71" filterUnits="userSpaceOnUse" color-interpolation-filters="sRGB">
<feFlood flood-opacity="0" result="BackgroundImageFix"/>
<feColorMatrix in="SourceAlpha" type="matrix" values="0 0 0 0 0 0 0 0 0 0 0 0 0 0 0 0 0 0 127 0" result="hardAlpha"/>
<feOffset dy="4"/>
<feGaussianBlur stdDeviation="2"/>
<feComposite in2="hardAlpha" operator="out"/>
<feColorMatrix type="matrix" values="0 0 0 0 0 0 0 0 0 0 0 0 0 0 0 0 0 0 0.25 0"/>
<feBlend mode="normal" in2="BackgroundImageFix" result="effect1_dropShadow_38_3875"/>
<feBlend mode="normal" in="SourceGraphic" in2="effect1_dropShadow_38_3875" result="shape"/>
</filter>
<filter id="filter5_d_38_3875" x="3.62085" y="20.1782" width="18.6738" height="16.4375" filterUnits="userSpaceOnUse" color-interpolation-filters="sRGB">
<feFlood flood-opacity="0" result="BackgroundImageFix"/>
<feColorMatrix in="SourceAlpha" type="matrix" values="0 0 0 0 0 0 0 0 0 0 0 0 0 0 0 0 0 0 127 0" result="hardAlpha"/>
<feOffset dy="4"/>
<feGaussianBlur stdDeviation="2"/>
<feComposite in2="hardAlpha" operator="out"/>
<feColorMatrix type="matrix" values="0 0 0 0 0 0 0 0 0 0 0 0 0 0 0 0 0 0 0.25 0"/>
<feBlend mode="normal" in2="BackgroundImageFix" result="effect1_dropShadow_38_3875"/>
<feBlend mode="normal" in="SourceGraphic" in2="effect1_dropShadow_38_3875" result="shape"/>
</filter>
<clipPath id="clip0_38_3875">
<rect width="33" height="33" fill="white" transform="translate(1)"/>
</clipPath>
</defs>
</svg>
