<svg width="41" height="29" viewBox="0 0 41 29" fill="none" xmlns="http://www.w3.org/2000/svg">
<g filter="url(#filter0_d_38_3827)">
<g clip-path="url(#clip0_38_3827)">
<g filter="url(#filter1_d_38_3827)">
<path d="M5.59857 16.4669L7.59775 12.4506H10.6334L11.057 11.5548H8.02133L9.36588 9.05646H13.5151V8.08252H8.82678L4.60059 16.4669H5.59857Z" fill="#0060BC"/>
<path d="M20.7384 10.4244C18.8419 11.3593 17.2278 13.7372 17.2278 15.2062C17.2278 16.6753 18.6622 17.6264 20.8667 15.8446V16.4668H21.9417C21.9417 16.4668 21.9417 15.5841 21.9802 15.0889C22.0444 14.2453 24.1944 10.5026 24.1944 10.5026C24.1944 10.5026 22.6349 9.48634 20.7384 10.4244ZM19.0858 15.8446C17.2214 15.8446 18.9702 12.7046 19.9875 11.7893C21.0079 10.8707 22.7279 10.5515 22.8595 10.9684C22.9846 11.3788 22.5033 12.3951 22.2498 12.8674C21.9899 13.3495 20.9502 15.8446 19.0858 15.8446Z" fill="#0060BC"/>
<path d="M24.9549 11.2713L25.7058 10.2974H30.5449L24.8586 15.571H28.1735L27.3937 16.4765H22.6509L28.4655 11.2811L24.9549 11.2713Z" fill="#0060BC"/>
<path d="M31.023 11.2713L31.7739 10.2974H36.6162L30.9268 15.571H34.2416L33.465 16.4765H28.719L34.5336 11.2811L31.023 11.2713Z" fill="#0060BC"/>
<path d="M15.1099 8.41455H17.7413L14.2628 14.3233H16.262L11.824 20.0758L14.1473 15.2777H12.055L15.1099 8.41455Z" fill="#F9A50C"/>
<path d="M19.6632 8.86758C19.5188 8.86758 19.3809 8.79592 19.3006 8.66237C18.7134 7.6982 17.6962 7.12165 16.5794 7.12165C15.4627 7.12165 14.4455 7.6982 13.855 8.66237C13.7331 8.86433 13.4732 8.92621 13.2742 8.80244C13.0753 8.67866 13.0143 8.41481 13.1362 8.21286C13.8807 6.99136 15.1675 6.26172 16.5794 6.26172C17.9914 6.26172 19.2782 6.99136 20.0194 8.21286C20.1446 8.41481 20.0836 8.67866 19.8847 8.80244C19.8141 8.84478 19.7371 8.86758 19.6632 8.86758Z" fill="#0060BC"/>
<path d="M9.79581 4.18674C9.63857 4.36263 9.65462 4.63299 9.8279 4.7926C10.0012 4.94895 10.2675 4.93592 10.4248 4.76003C11.9939 2.98804 14.237 1.97175 16.5795 1.97175V1.11182C13.9963 1.11182 11.5222 2.23234 9.79581 4.18674Z" fill="#F9A50C"/>
<path d="M11.4612 6.17056C11.3136 6.35297 11.3425 6.62333 11.5254 6.77317C11.7051 6.923 11.9715 6.89369 12.1191 6.71128C13.2133 5.33343 14.8403 4.54515 16.5795 4.54515V3.68848C14.5836 3.68848 12.7192 4.59401 11.4612 6.17056Z" fill="#F9A50C"/>
<path d="M22.7344 4.76003C22.8178 4.85449 22.9333 4.90335 23.0488 4.90335C23.1483 4.90335 23.251 4.86426 23.3312 4.7926C23.5045 4.63299 23.5174 4.36263 23.3633 4.18674C21.6337 2.23234 19.1628 1.11182 16.5796 1.11182V1.97175C18.9221 1.97175 21.1652 2.98804 22.7344 4.76003Z" fill="#0060BC"/>
<path d="M21.04 6.71128C21.1235 6.81551 21.2454 6.86763 21.3674 6.86763C21.4604 6.86763 21.5567 6.83831 21.6337 6.77317C21.8166 6.62333 21.8423 6.35297 21.6979 6.17056C20.44 4.59401 18.5756 3.68848 16.5796 3.68848V4.54515C18.3188 4.54515 19.9426 5.33343 21.04 6.71128Z" fill="#0060BC"/>
</g>
</g>
</g>
<defs>
<filter id="filter0_d_38_3827" x="-1.33325" y="0.166504" width="43.8333" height="28.8335" filterUnits="userSpaceOnUse" color-interpolation-filters="sRGB">
<feFlood flood-opacity="0" result="BackgroundImageFix"/>
<feColorMatrix in="SourceAlpha" type="matrix" values="0 0 0 0 0 0 0 0 0 0 0 0 0 0 0 0 0 0 127 0" result="hardAlpha"/>
<feOffset dy="4"/>
<feGaussianBlur stdDeviation="2"/>
<feComposite in2="hardAlpha" operator="out"/>
<feColorMatrix type="matrix" values="0 0 0 0 0 0 0 0 0 0 0 0 0 0 0 0 0 0 0.25 0"/>
<feBlend mode="normal" in2="BackgroundImageFix" result="effect1_dropShadow_38_3827"/>
<feBlend mode="normal" in="SourceGraphic" in2="effect1_dropShadow_38_3827" result="shape"/>
</filter>
<filter id="filter1_d_38_3827" x="0.600586" y="1.11182" width="40.0156" height="26.9639" filterUnits="userSpaceOnUse" color-interpolation-filters="sRGB">
<feFlood flood-opacity="0" result="BackgroundImageFix"/>
<feColorMatrix in="SourceAlpha" type="matrix" values="0 0 0 0 0 0 0 0 0 0 0 0 0 0 0 0 0 0 127 0" result="hardAlpha"/>
<feOffset dy="4"/>
<feGaussianBlur stdDeviation="2"/>
<feComposite in2="hardAlpha" operator="out"/>
<feColorMatrix type="matrix" values="0 0 0 0 0 0 0 0 0 0 0 0 0 0 0 0 0 0 0.25 0"/>
<feBlend mode="normal" in2="BackgroundImageFix" result="effect1_dropShadow_38_3827"/>
<feBlend mode="normal" in="SourceGraphic" in2="effect1_dropShadow_38_3827" result="shape"/>
</filter>
<clipPath id="clip0_38_3827">
<rect x="2.66675" y="0.166504" width="35.8333" height="20.8333" rx="10.4167" fill="white"/>
</clipPath>
</defs>
</svg>
