<svg width="20" height="20" viewBox="0 0 20 20" fill="none" xmlns="http://www.w3.org/2000/svg">
<g clip-path="url(#clip0_38_2410)">
<g filter="url(#filter0_d_38_2410)">
<path d="M2.32422 1.42578L1.42578 2.32422L5.3125 6.19141L12.2461 13.125L13.4375 14.3359L17.6758 18.5742L18.5742 17.6758L14.6875 13.7891C17.334 12.478 19.1089 10.5322 19.2188 10.4102L19.5898 10L19.2188 9.58984C19.0503 9.40186 15.0537 5 10 5C8.77686 5 7.62207 5.26855 6.5625 5.66406L2.32422 1.42578ZM10 6.25C11.3452 6.25 12.6172 6.62842 13.75 7.14844C14.1528 7.82227 14.375 8.58398 14.375 9.375C14.375 10.5103 13.9355 11.5479 13.2227 12.3242L11.4453 10.5469C11.7065 10.2271 11.875 9.82178 11.875 9.375C11.875 8.33984 11.0352 7.5 10 7.5C9.55322 7.5 9.14795 7.66846 8.82812 7.92969L7.55859 6.66016C8.33496 6.4209 9.14795 6.25 10 6.25ZM4.17969 6.81641C2.17529 8.04932 0.874024 9.48486 0.78125 9.58984L0.410156 10L0.78125 10.4102C0.942383 10.5908 4.64356 14.6411 9.41406 14.9609C9.60693 14.9805 9.80225 15 10 15C10.1978 15 10.3931 14.9805 10.5859 14.9609C11.1011 14.9268 11.604 14.8584 12.0898 14.7461L10.9766 13.6328C10.6592 13.7061 10.3369 13.75 10 13.75C7.58789 13.75 5.625 11.7871 5.625 9.375C5.625 9.04297 5.66895 8.71826 5.74219 8.39844L4.17969 6.81641ZM4.53125 8.08594C4.43115 8.5083 4.375 8.93799 4.375 9.375C4.375 10.4614 4.68018 11.4624 5.21484 12.3242C3.78418 11.5039 2.69043 10.542 2.12891 10C2.59522 9.54834 3.43506 8.79883 4.53125 8.08594ZM15.4688 8.08594C16.5649 8.79883 17.4023 9.54834 17.8711 10C17.3096 10.542 16.1987 11.5234 14.7656 12.3438C15.3027 11.4819 15.625 10.4614 15.625 9.375C15.625 8.93799 15.5688 8.50586 15.4688 8.08594Z" fill="black"/>
</g>
</g>
<defs>
<filter id="filter0_d_38_2410" x="-3.58984" y="1.42578" width="27.1797" height="25.1484" filterUnits="userSpaceOnUse" color-interpolation-filters="sRGB">
<feFlood flood-opacity="0" result="BackgroundImageFix"/>
<feColorMatrix in="SourceAlpha" type="matrix" values="0 0 0 0 0 0 0 0 0 0 0 0 0 0 0 0 0 0 127 0" result="hardAlpha"/>
<feOffset dy="4"/>
<feGaussianBlur stdDeviation="2"/>
<feComposite in2="hardAlpha" operator="out"/>
<feColorMatrix type="matrix" values="0 0 0 0 0 0 0 0 0 0 0 0 0 0 0 0 0 0 0.25 0"/>
<feBlend mode="normal" in2="BackgroundImageFix" result="effect1_dropShadow_38_2410"/>
<feBlend mode="normal" in="SourceGraphic" in2="effect1_dropShadow_38_2410" result="shape"/>
</filter>
<clipPath id="clip0_38_2410">
<path d="M0 0H20V10C20 15.5228 15.5228 20 10 20H0V0Z" fill="white"/>
</clipPath>
</defs>
</svg>
