<svg width="10" height="10" viewBox="0 0 10 10" fill="none" xmlns="http://www.w3.org/2000/svg">
<path d="M9.08325 4.41683H5.58325V0.916829C5.58325 0.76212 5.52179 0.613747 5.4124 0.504351C5.303 0.394954 5.15463 0.333496 4.99992 0.333496C4.84521 0.333496 4.69684 0.394954 4.58744 0.504351C4.47804 0.613747 4.41659 0.76212 4.41659 0.916829V4.41683H0.916585C0.761876 4.41683 0.613503 4.47829 0.504106 4.58768C0.39471 4.69708 0.333252 4.84545 0.333252 5.00016C0.333252 5.15487 0.39471 5.30325 0.504106 5.41264C0.613503 5.52204 0.761876 5.5835 0.916585 5.5835H4.41659V9.0835C4.41659 9.23821 4.47804 9.38658 4.58744 9.49598C4.69684 9.60537 4.84521 9.66683 4.99992 9.66683C5.15463 9.66683 5.303 9.60537 5.4124 9.49598C5.52179 9.38658 5.58325 9.23821 5.58325 9.0835V5.5835H9.08325C9.23796 5.5835 9.38634 5.52204 9.49573 5.41264C9.60513 5.30325 9.66659 5.15487 9.66659 5.00016C9.66659 4.84545 9.60513 4.69708 9.49573 4.58768C9.38634 4.47829 9.23796 4.41683 9.08325 4.41683Z" fill="white"/>
</svg>
