<svg width="40" height="18" viewBox="0 0 40 18" fill="none" xmlns="http://www.w3.org/2000/svg">
<g filter="url(#filter0_d_38_2594)">
<path d="M36.563 9.67773V8.56835V6.35125H33.2211H30.9937V5.24187H36.563V3.02477H30.9937H27.6519V5.24187V6.35125V8.56835H30.9937H33.2211V9.67773H27.6519V11.8948H33.2211H36.563V9.67773ZM37.4436 8.98416V12.5884C37.4436 12.6616 37.4135 12.7331 37.3617 12.7847C37.3099 12.8362 37.238 12.8662 37.1645 12.8662H33.5436V13.42H37.7209C37.7945 13.42 37.8663 13.3901 37.9181 13.3385C37.9699 13.287 38 13.2154 38 13.1423V8.98416H37.4436ZM7.36667 1.77734H3.18933C3.1158 1.77734 3.04395 1.80728 2.99215 1.85884C2.94036 1.9104 2.91028 1.98192 2.91028 2.0551V6.2132H3.4667V2.60896C3.4667 2.53578 3.49678 2.46426 3.54858 2.4127C3.60038 2.36114 3.67223 2.3312 3.74575 2.3312H7.36667V1.77734ZM10.9425 14.6674H13.1698V9.67773H10.9425V14.6674ZM12.8925 3.02477H7.6006V5.24187H10.9425V8.56835H13.1698V3.30087C13.1698 3.22769 13.1398 3.15617 13.088 3.10461C13.0362 3.05305 12.9643 3.02311 12.8908 3.02311L12.8925 3.02477ZM6.48776 3.02477H4.53777C4.46425 3.02477 4.3924 3.05471 4.3406 3.10627C4.2888 3.15783 4.25873 3.22935 4.25873 3.30253V11.6187C4.25873 11.6919 4.2888 11.7634 4.3406 11.815C4.3924 11.8665 4.46425 11.8965 4.53777 11.8965H9.82963V9.67939H6.48776V3.02644V3.02477ZM7.60227 8.56835H9.82963V6.35125H7.60227V8.56835ZM8.1587 6.90511H9.27321V8.01449H8.1587V6.90511ZM14.286 3.02477V5.24187H20.9698V6.35125H16.5134H14.286V8.56835V11.8948H16.5134V8.60161L19.8553 11.8948H23.1971L19.7099 8.56835H20.9681H23.1955V6.35125V5.24187V3.02477H20.9681H14.2844H14.286ZM24.3117 11.8948H26.539V3.02477H24.3117V11.8948Z" fill="#F0F0F0"/>
</g>
<defs>
<filter id="filter0_d_38_2594" x="0.910278" y="0.777344" width="39.0897" height="16.8901" filterUnits="userSpaceOnUse" color-interpolation-filters="sRGB">
<feFlood flood-opacity="0" result="BackgroundImageFix"/>
<feColorMatrix in="SourceAlpha" type="matrix" values="0 0 0 0 0 0 0 0 0 0 0 0 0 0 0 0 0 0 127 0" result="hardAlpha"/>
<feOffset dy="1"/>
<feGaussianBlur stdDeviation="1"/>
<feComposite in2="hardAlpha" operator="out"/>
<feColorMatrix type="matrix" values="0 0 0 0 0 0 0 0 0 0 0 0 0 0 0 0 0 0 0.15 0"/>
<feBlend mode="normal" in2="BackgroundImageFix" result="effect1_dropShadow_38_2594"/>
<feBlend mode="normal" in="SourceGraphic" in2="effect1_dropShadow_38_2594" result="shape"/>
</filter>
</defs>
</svg>
