<svg width="41" height="16" viewBox="0 0 41 16" fill="none" xmlns="http://www.w3.org/2000/svg">
<g clip-path="url(#clip0_38_3854)">
<g filter="url(#filter0_d_38_3854)">
<path d="M39.3279 9.36005V8.06908V5.48908H35.439H32.847V4.19812H39.3279V1.61812H32.847H28.9581V4.19812V5.48908V8.06908H32.847H35.439V9.36005H28.9581V11.9401H35.439H39.3279V9.36005ZM40.3526 8.55295V12.7471C40.3526 12.8323 40.3176 12.9155 40.2573 12.9755C40.197 13.0355 40.1134 13.0704 40.0279 13.0704H35.8142V13.7149H40.6754C40.7609 13.7149 40.8445 13.6801 40.9048 13.6201C40.9651 13.5601 41.0001 13.4768 41.0001 13.3917V8.55295H40.3526ZM5.35258 0.166504H0.49147C0.405915 0.166504 0.322304 0.201343 0.262026 0.261343C0.201748 0.321343 0.166748 0.404568 0.166748 0.48973V5.32844H0.814248V1.13425C0.814248 1.04908 0.849248 0.965859 0.909526 0.905859C0.969804 0.845859 1.05341 0.81102 1.13897 0.81102H5.35258V0.166504ZM9.51369 15.1665H12.1056V9.36005H9.51369V15.1665ZM11.7829 1.61812H5.6248V4.19812H9.51369V8.06908H12.1056V1.93941C12.1056 1.85425 12.0706 1.77102 12.0104 1.71102C11.9501 1.65102 11.8665 1.61618 11.7809 1.61618L11.7829 1.61812ZM4.3298 1.61812H2.06064C1.97508 1.61812 1.89147 1.65296 1.83119 1.71296C1.77091 1.77296 1.73591 1.85618 1.73591 1.94134V11.6188C1.73591 11.7039 1.77091 11.7871 1.83119 11.8471C1.89147 11.9071 1.97508 11.942 2.06064 11.942H8.21869V9.36199H4.3298V1.62005V1.61812ZM5.62675 8.06908H8.21869V5.48908H5.62675V8.06908ZM6.27425 6.1336H7.57119V7.42457H6.27425V6.1336ZM13.4045 1.61812V4.19812H21.1823V5.48908H15.9965H13.4045V8.06908V11.9401H15.9965V8.10779L19.8854 11.9401H23.7742L19.7162 8.06908H21.1804H23.7723V5.48908V4.19812V1.61812H21.1804H13.4026H13.4045ZM25.0712 11.9401H27.6631V1.61812H25.0712V11.9401Z" fill="#236B9E"/>
</g>
</g>
<defs>
<filter id="filter0_d_38_3854" x="-3.83325" y="0.166504" width="48.8333" height="23" filterUnits="userSpaceOnUse" color-interpolation-filters="sRGB">
<feFlood flood-opacity="0" result="BackgroundImageFix"/>
<feColorMatrix in="SourceAlpha" type="matrix" values="0 0 0 0 0 0 0 0 0 0 0 0 0 0 0 0 0 0 127 0" result="hardAlpha"/>
<feOffset dy="4"/>
<feGaussianBlur stdDeviation="2"/>
<feComposite in2="hardAlpha" operator="out"/>
<feColorMatrix type="matrix" values="0 0 0 0 0 0 0 0 0 0 0 0 0 0 0 0 0 0 0.25 0"/>
<feBlend mode="normal" in2="BackgroundImageFix" result="effect1_dropShadow_38_3854"/>
<feBlend mode="normal" in="SourceGraphic" in2="effect1_dropShadow_38_3854" result="shape"/>
</filter>
<clipPath id="clip0_38_3854">
<rect width="40.8333" height="15" fill="white" transform="translate(0.166748 0.166504)"/>
</clipPath>
</defs>
</svg>
