<svg width="36" height="36" viewBox="0 0 36 36" fill="none" xmlns="http://www.w3.org/2000/svg">
<g clip-path="url(#clip0_38_3888)">
<g filter="url(#filter0_d_38_3888)">
<path d="M29.0283 20.8673C28.2551 20.0941 28.2551 18.8405 29.0283 18.0672C29.8016 17.294 31.0552 17.294 31.8285 18.0672C32.6017 18.8405 32.6017 20.0941 31.8285 20.8673C31.0552 21.6406 29.8016 21.6406 29.0283 20.8673Z" fill="#7FB1D4"/>
<path d="M5.12741 21.3964C4.06319 21.1451 3.40419 20.0787 3.65548 19.0145C3.90677 17.9503 4.9732 17.2913 6.03742 17.5426C7.10164 17.7938 7.76064 18.8603 7.50935 19.9245C7.25806 20.9887 6.19163 21.6477 5.12741 21.3964Z" fill="#7FB1D4"/>
<path d="M7.07992 15.8399H8.75992C8.75992 10.7399 12.8999 6.59992 17.9999 6.59992C23.0999 6.59992 27.2399 10.7399 27.2399 15.8399H28.9199C28.9199 9.80992 24.0299 4.91992 17.9999 4.91992C11.9699 4.91992 7.07992 9.80992 7.07992 15.8399Z" fill="#7FB1D4"/>
<path d="M15.21 30.4199C15.93 30.4199 16.41 30.3899 16.47 30.3899L16.41 29.7299C16.35 29.7299 9.53997 30.2399 8.72997 27.4199C7.82997 24.2999 8.27997 20.9999 8.27997 20.9699L7.61997 20.8799C7.58997 20.9999 7.13997 24.3299 8.09997 27.5999C8.84997 30.0899 13.05 30.4199 15.21 30.4199Z" fill="#7FB1D4"/>
<path d="M15.5099 31.0799H17.3399C17.9399 31.0799 18.4199 30.5999 18.4199 29.9999C18.4199 29.3999 17.9399 28.9199 17.3399 28.9199H15.5099C14.9099 28.9199 14.4299 29.3999 14.4299 29.9999C14.4299 30.5999 14.9099 31.0799 15.5099 31.0799Z" fill="#7FB1D4"/>
<path d="M28.44 15.27C29.97 15.27 31.23 16.53 31.23 18.06V21.3C31.23 22.83 29.97 24.09 28.44 24.09C27.15 24.09 26.1 23.04 26.1 21.75V17.58C26.13 16.29 27.15 15.27 28.44 15.27Z" fill="#7FB1D4"/>
<path d="M7.5599 15.27C8.8499 15.27 9.8999 16.32 9.8999 17.61V21.75C9.8999 23.04 8.8499 24.09 7.5599 24.09C6.0299 24.09 4.7699 22.83 4.7699 21.3V18.03C4.7699 16.5 6.0299 15.27 7.5599 15.27Z" fill="#7FB1D4"/>
</g>
</g>
<defs>
<filter id="filter0_d_38_3888" x="-0.397949" y="4.91992" width="36.8064" height="34.1602" filterUnits="userSpaceOnUse" color-interpolation-filters="sRGB">
<feFlood flood-opacity="0" result="BackgroundImageFix"/>
<feColorMatrix in="SourceAlpha" type="matrix" values="0 0 0 0 0 0 0 0 0 0 0 0 0 0 0 0 0 0 127 0" result="hardAlpha"/>
<feOffset dy="4"/>
<feGaussianBlur stdDeviation="2"/>
<feComposite in2="hardAlpha" operator="out"/>
<feColorMatrix type="matrix" values="0 0 0 0 0 0 0 0 0 0 0 0 0 0 0 0 0 0 0.25 0"/>
<feBlend mode="normal" in2="BackgroundImageFix" result="effect1_dropShadow_38_3888"/>
<feBlend mode="normal" in="SourceGraphic" in2="effect1_dropShadow_38_3888" result="shape"/>
</filter>
<clipPath id="clip0_38_3888">
<rect width="36" height="36" fill="white" transform="matrix(-1 0 0 1 36 0)"/>
</clipPath>
</defs>
</svg>
