<svg width="18" height="19" viewBox="0 0 18 19" fill="none" xmlns="http://www.w3.org/2000/svg">
<path d="M7.16667 6.27272H12.6667C12.9098 6.27272 13.1429 6.17694 13.3148 6.00645C13.4868 5.83597 13.5833 5.60474 13.5833 5.36363C13.5833 5.12253 13.4868 4.89129 13.3148 4.72081C13.1429 4.55032 12.9098 4.45454 12.6667 4.45454H7.16667C6.92355 4.45454 6.69039 4.55032 6.51849 4.72081C6.34658 4.89129 6.25 5.12253 6.25 5.36363C6.25 5.60474 6.34658 5.83597 6.51849 6.00645C6.69039 6.17694 6.92355 6.27272 7.16667 6.27272ZM5.33333 9.90909H12.6667C12.9098 9.90909 13.1429 9.81331 13.3148 9.64282C13.4868 9.47233 13.5833 9.2411 13.5833 8.99999C13.5833 8.75889 13.4868 8.52766 13.3148 8.35717C13.1429 8.18668 12.9098 8.0909 12.6667 8.0909H5.33333C5.09022 8.0909 4.85706 8.18668 4.68515 8.35717C4.51324 8.52766 4.41667 8.75889 4.41667 8.99999C4.41667 9.2411 4.51324 9.47233 4.68515 9.64282C4.85706 9.81331 5.09022 9.90909 5.33333 9.90909ZM5.33333 13.5454H12.6667C12.9098 13.5454 13.1429 13.4497 13.3148 13.2792C13.4868 13.1087 13.5833 12.8775 13.5833 12.6364C13.5833 12.3953 13.4868 12.164 13.3148 11.9935C13.1429 11.823 12.9098 11.7273 12.6667 11.7273H5.33333C5.09022 11.7273 4.85706 11.823 4.68515 11.9935C4.51324 12.164 4.41667 12.3953 4.41667 12.6364C4.41667 12.8775 4.51324 13.1087 4.68515 13.2792C4.85706 13.4497 5.09022 13.5454 5.33333 13.5454ZM16.3333 0.818176H1.66667C1.42355 0.818176 1.19039 0.913955 1.01849 1.08444C0.846577 1.25493 0.75 1.48616 0.75 1.72727V18.0909C0.75 18.2597 0.797405 18.4252 0.886903 18.5688C0.976402 18.7125 1.10446 18.8285 1.25672 18.904C1.40898 18.9795 1.57944 19.0115 1.74899 18.9963C1.91854 18.9812 2.08048 18.9195 2.21667 18.8182L4.11417 17.4091L6.0025 18.8182C6.16117 18.9362 6.35416 19 6.5525 19C6.75084 19 6.94383 18.9362 7.1025 18.8182L9 17.4091L10.8975 18.8182C11.0562 18.9362 11.2492 19 11.4475 19C11.6458 19 11.8388 18.9362 11.9975 18.8182L13.8858 17.4091L15.7833 18.8182C15.9202 18.9193 16.0828 18.9806 16.2528 18.995C16.4229 19.0095 16.5936 18.9766 16.7458 18.9C16.897 18.8244 17.0241 18.7089 17.1131 18.5661C17.2021 18.4232 17.2495 18.2588 17.25 18.0909V1.72727C17.25 1.48616 17.1534 1.25493 16.9815 1.08444C16.8096 0.913955 16.5764 0.818176 16.3333 0.818176ZM15.4167 16.2727L14.4358 15.5455C14.2772 15.4274 14.0842 15.3636 13.8858 15.3636C13.6875 15.3636 13.4945 15.4274 13.3358 15.5455L11.4475 16.9545L9.55 15.5455C9.39133 15.4274 9.19834 15.3636 9 15.3636C8.80166 15.3636 8.60867 15.4274 8.45 15.5455L6.5525 16.9545L4.66417 15.5455C4.5055 15.4274 4.31251 15.3636 4.11417 15.3636C3.91583 15.3636 3.72284 15.4274 3.56417 15.5455L2.58333 16.2727V2.63636H15.4167V16.2727Z" fill="#4B94C8"/>
</svg>
