<svg width="16" height="20" viewBox="0 0 16 20" fill="none" xmlns="http://www.w3.org/2000/svg">
<g filter="url(#filter0_d_38_2421)">
<path d="M6.66667 4.484H10.6667C10.8435 4.484 11.013 4.41178 11.1381 4.28322C11.2631 4.15467 11.3333 3.98031 11.3333 3.79851C11.3333 3.61671 11.2631 3.44236 11.1381 3.3138C11.013 3.18525 10.8435 3.11303 10.6667 3.11303H6.66667C6.48986 3.11303 6.32029 3.18525 6.19526 3.3138C6.07024 3.44236 6 3.61671 6 3.79851C6 3.98031 6.07024 4.15467 6.19526 4.28322C6.32029 4.41178 6.48986 4.484 6.66667 4.484ZM5.33333 7.22593H10.6667C10.8435 7.22593 11.013 7.15371 11.1381 7.02516C11.2631 6.89661 11.3333 6.72225 11.3333 6.54045C11.3333 6.35865 11.2631 6.18429 11.1381 6.05574C11.013 5.92719 10.8435 5.85496 10.6667 5.85496H5.33333C5.15652 5.85496 4.98695 5.92719 4.86193 6.05574C4.7369 6.18429 4.66667 6.35865 4.66667 6.54045C4.66667 6.72225 4.7369 6.89661 4.86193 7.02516C4.98695 7.15371 5.15652 7.22593 5.33333 7.22593ZM5.33333 9.96787H10.6667C10.8435 9.96787 11.013 9.89565 11.1381 9.76709C11.2631 9.63854 11.3333 9.46419 11.3333 9.28238C11.3333 9.10058 11.2631 8.92623 11.1381 8.79767C11.013 8.66912 10.8435 8.5969 10.6667 8.5969H5.33333C5.15652 8.5969 4.98695 8.66912 4.86193 8.79767C4.7369 8.92623 4.66667 9.10058 4.66667 9.28238C4.66667 9.46419 4.7369 9.63854 4.86193 9.76709C4.98695 9.89565 5.15652 9.96787 5.33333 9.96787ZM13.3333 0.371094H2.66667C2.48986 0.371094 2.32029 0.443314 2.19526 0.571867C2.07024 0.70042 2 0.874776 2 1.05658V13.3953C2 13.5226 2.03448 13.6474 2.09957 13.7557C2.16466 13.864 2.25779 13.9515 2.36852 14.0084C2.47926 14.0653 2.60323 14.0894 2.72654 14.078C2.84984 14.0666 2.96762 14.0201 3.06667 13.9437L4.44667 12.8812L5.82 13.9437C5.9354 14.0327 6.07575 14.0808 6.22 14.0808C6.36425 14.0808 6.5046 14.0327 6.62 13.9437L8 12.8812L9.38 13.9437C9.4954 14.0327 9.63575 14.0808 9.78 14.0808C9.92425 14.0808 10.0646 14.0327 10.18 13.9437L11.5533 12.8812L12.9333 13.9437C13.0329 14.0199 13.1511 14.0661 13.2748 14.077C13.3985 14.0879 13.5226 14.0631 13.6333 14.0054C13.7433 13.9484 13.8357 13.8612 13.9005 13.7536C13.9652 13.6459 13.9996 13.5219 14 13.3953V1.05658C14 0.874776 13.9298 0.70042 13.8047 0.571867C13.6797 0.443314 13.5101 0.371094 13.3333 0.371094ZM12.6667 12.0243L11.9533 11.4759C11.8379 11.3869 11.6976 11.3388 11.5533 11.3388C11.4091 11.3388 11.2687 11.3869 11.1533 11.4759L9.78 12.5384L8.4 11.4759C8.2846 11.3869 8.14425 11.3388 8 11.3388C7.85575 11.3388 7.7154 11.3869 7.6 11.4759L6.22 12.5384L4.84667 11.4759C4.73127 11.3869 4.59091 11.3388 4.44667 11.3388C4.30242 11.3388 4.16206 11.3869 4.04667 11.4759L3.33333 12.0243V1.74206H12.6667V12.0243Z" fill="#236B9E"/>
</g>
<defs>
<filter id="filter0_d_38_2421" x="-2" y="0.371094" width="20" height="21.7095" filterUnits="userSpaceOnUse" color-interpolation-filters="sRGB">
<feFlood flood-opacity="0" result="BackgroundImageFix"/>
<feColorMatrix in="SourceAlpha" type="matrix" values="0 0 0 0 0 0 0 0 0 0 0 0 0 0 0 0 0 0 127 0" result="hardAlpha"/>
<feOffset dy="4"/>
<feGaussianBlur stdDeviation="2"/>
<feComposite in2="hardAlpha" operator="out"/>
<feColorMatrix type="matrix" values="0 0 0 0 0 0 0 0 0 0 0 0 0 0 0 0 0 0 0.25 0"/>
<feBlend mode="normal" in2="BackgroundImageFix" result="effect1_dropShadow_38_2421"/>
<feBlend mode="normal" in="SourceGraphic" in2="effect1_dropShadow_38_2421" result="shape"/>
</filter>
</defs>
</svg>
